/* XPM */
static char * test_xpm[] = {
"64 64 57 1",
" 	c #C7BFE6",
".	c #C8BFE6",
"+	c #CABFE1",
"@	c #D2B5CE",
"#	c #D2B5CD",
"$	c #CEBBD7",
"%	c #C8BFE3",
"&	c #E79883",
"*	c #DEA485",
"=	c #DEA587",
"-	c #DEA487",
";	c #E6986F",
">	c #D4B4CB",
",	c #D6B1C5",
"'	c #C9BAB2",
")	c #9AD9EA",
"!	c #9AD9E9",
"~	c #A2D6E2",
"{	c #E39E89",
"]	c #C7BFE7",
"^	c #E2A6A9",
"/	c #A5D3DD",
"(	c #D4AB9A",
"_	c #E3A5AA",
":	c #A2D6E3",
"<	c #D0AD9E",
"[	c #C9BEE6",
"}	c #E3A6A7",
"|	c #D1AD9D",
"1	c #C8BFE5",
"2	c #E3A6A8",
"3	c #C8BFE4",
"4	c #99D9EA",
"5	c #A3D6E3",
"6	c #9BD8EA",
"7	c #D0AD9D",
"8	c #C9BFE5",
"9	c #DEA9B0",
"0	c #ADCDD4",
"a	c #9AD9E8",
"b	c #DAAA94",
"c	c #D1B9D5",
"d	c #DEA288",
"e	c #A6D3DD",
"f	c #A5D4DE",
"g	c #A5D4DF",
"h	c #A4D4DF",
"i	c #BBC4C3",
"j	c #E2A19D",
"k	c #C7BFE5",
"l	c #DCACBA",
"m	c #ED926D",
"n	c #ED916D",
"o	c #E99A8D",
"p	c #CBBCDF",
"q	c #C7C0E6",
"r	c #C8BEE4",
"                                                                ",
"                                                                ",
"                                                                ",
"                                                                ",
"                                                                ",
"                                                                ",
"                                                                ",
"                                                                ",
"                                                                ",
"                                                                ",
"                                                                ",
"                                                                ",
"                                                                ",
"                 .+@##########################@$..              ",
"                 %&*==========================-;>               ",
"                 ,')!!!)!!!!!)!!!!)!!!!!)!!!!)!~{               ",
"                ]^/)))))))))))))))))))))))))))))(.              ",
"                 _:)))))))))))))))))))))))))))))<[              ",
"                 }:)))))))))))))))))))))))))))))|1              ",
"                 2:)))))))))))))))))))))))))))))|3              ",
"                 2:)))))))))))))))))))))))))))))|3              ",
"                 2:)))))))))))))))))))))))))))))|3              ",
"                 2:)))))))))))))))))))))))))))))|3              ",
"                 2:)))))))))))))))))))))))))))))|3              ",
"                 2:)))))))))))))))))))))))))))))|3              ",
"                 2:)))))))))))))))))))))))))))))|3              ",
"                 2:)))))))))))))))))))))))))))))|3              ",
"                 2:)))))))))))))))))))))))))))))|3              ",
"                 2:)))))))))))))))))))))))))))))|3              ",
"                 2:)))))))))))))))))))))))))))))|3              ",
"                 2:)))))))))))))))))))))))))))))|3              ",
"                 2:)))))))))))))))))))))))))))))|3              ",
"                 2:)))))))))))))))))))))))))))))|3              ",
"                 2:)))))))))))))))))))))))))))))|3              ",
"                 2:)))))))))))))))))))))))))))))|3              ",
"                 2:)))))))))))))))))))))))))))))|3              ",
"                 2:)))))))))))))))))))))))))))))|3              ",
"                 2:)))))))))))))))))))))))))))))|3              ",
"                 2:)))))))))))))))))))))))))))))|3              ",
"                 2:)))))))))))))))))))))))))))))|3              ",
"                 2:)))))))))))))))))))))))))))))|3              ",
"                 2:)))))))))))))))))))))))))))))|3              ",
"                 2:)))))))))))))))))))))))))))))|3              ",
"                 2:)))))))))))))))))))))))))))))|3              ",
"                 2:)))))))))))))))))))))))))))))|3              ",
"                 2:)))))))))))))))))))))))))))))|3              ",
"                 2:)))))))))))))))))))))))))))))|3              ",
"                 2:)))))))))))))))))))))))))))))|3              ",
"                 2:)))))))))))))))))))))))))))))|3              ",
"                 2:)))))))))))))))))))))))))))))|3              ",
"                 2:)))))))))))))))))))))))))))))|3              ",
"                 2:)))))))))))))))))))))))))))))|3              ",
"                 2:!)))))))))))))))))))))))))))4|1              ",
"                 25))))))))))))))))))))))))))))678              ",
"                ]90!)))))))))))))))))))))))))))ab.              ",
"                .cdeffggggfggggffggggfggggffgghij               ",
"                kklmmmmnmmmmnnmmmmnnmmmmnmmmmnmopq              ",
"                 .k133333333333333333333333333rk1.              ",
"                                                                ",
"                                                                ",
"                                                                ",
"                                                                ",
"                                                                ",
"                                                                "};
