OFF
167 330 0
2.33333 1.71451e-15 8.33333
2 1.83697e-15 10
1.94188 -0.478631 10
3.91812 -0.805194 0
4 1.10218e-15 0
3.66667 1.22465e-15 1.66667
1.94188 0.478631 10
3.91812 0.805194 0
2.23882 -0.657376 8.33333
1.77091 -0.929446 10
1.96292 -1.2615 8.33333
1.49702 -1.32625 10
2.55865 -0.751287 6.66667
2.66667 1.59204e-15 6.66667
1.52801 -1.76342 8.33333
1.13613 -1.64597 10
2.24334 -1.44171 6.66667
0.969302 -2.12247 8.33333
0.70921 -1.87003 10
2.87848 -0.845198 5
3 1.46958e-15 5
3.33333 1.34711e-15 3.33333
1.7463 -2.01533 6.66667
0.332068 -2.30958 8.33333
0.241073 -1.98542 10
2.52376 -1.62192 5
1.10777 -2.42569 6.66667
-0.332068 -2.30958 8.33333
-0.241073 -1.98542 10
-0.70921 -1.87003 10
3.19831 -0.939109 3.33333
1.96458 -2.26725 5
0.379506 -2.63952 6.66667
-0.969302 -2.12247 8.33333
-1.13613 -1.64597 10
2.80418 -1.80214 3.33333
1.24625 -2.7289 5
-0.379506 -2.63952 6.66667
-1.52801 -1.76342 8.33333
-1.49702 -1.32625 10
3.51814 -1.03302 1.66667
3.67583 -1.57742 0
2.18287 -2.51917 3.33333
0.426945 -2.96946 5
-1.10777 -2.42569 6.66667
-1.96292 -1.2615 8.33333
-1.77091 -0.929446 10
3.0846 -1.98235 1.66667
3.28305 -2.28507 0
2.75587 -2.89917 0
1.38472 -3.03211 3.33333
-0.426945 -2.96946 5
-1.7463 -2.01533 6.66667
-2.23882 -0.657376 8.33333
-1.94188 -0.478631 10
2.40116 -2.77108 1.66667
2.11586 -3.39458 0
0.474383 -3.2994 3.33333
-1.24625 -2.7289 5
-2.24334 -1.44171 6.66667
-2.33333 -1.78955e-16 8.33333
-2 -6.74175e-16 10
-1.94188 0.478631 10
1.52319 -3.33532 1.66667
1.38922 -3.75101 0
-0.474383 -3.2994 3.33333
-1.96458 -2.26725 5
-2.55865 -0.751287 6.66667
-2.23882 0.657376 8.33333
-1.77091 0.929446 10
0.521821 -3.62935 1.66667
0.605711 -3.95387 0
-0.202597 -3.99487 0
-1.38472 -3.03211 3.33333
-2.52376 -1.62192 5
-2.66667 -5.71914e-16 6.66667
-1.96292 1.2615 8.33333
-1.49702 1.32625 10
-0.521821 -3.62935 1.66667
-1.00261 -3.87231 0
-2.18287 -2.51917 3.33333
-2.87848 -0.845198 5
-2.55865 0.751287 6.66667
-1.52801 1.76342 8.33333
-1.13613 1.64597 10
-1.52319 -3.33532 1.66667
-1.76158 -3.59122 0
-2.44842 -3.1631 0
-2.80418 -1.80214 3.33333
-3 -9.64874e-16 5
-2.24334 1.44171 6.66667
-0.969302 2.12247 8.33333
-0.70921 1.87003 10
-2.40116 -2.77108 1.66667
-3.03503 -2.60549 0
-3.19831 -0.939109 3.33333
-2.87848 0.845198 5
-1.7463 2.01533 6.66667
-0.332068 2.30958 8.33333
-0.241073 1.98542 10
-3.0846 -1.98235 1.66667
-3.49739 -1.94121 0
-3.33333 -1.35783e-15 3.33333
-2.52376 1.62192 5
-1.10777 2.42569 6.66667
0.332068 2.30958 8.33333
0.241073 1.98542 10
0.70921 1.87003 10
-3.51814 -1.03302 1.66667
-3.81656 -1.19745 0
-3.97948 -0.404673 0
-3.19831 0.939109 3.33333
-1.96458 2.26725 5
-0.379506 2.63952 6.66667
0.969302 2.12247 8.33333
1.13613 1.64597 10
-3.66667 -1.75079e-15 1.66667
-3.97948 0.404673 0
-2.80418 1.80214 3.33333
-1.24625 2.7289 5
0.379506 2.63952 6.66667
1.52801 1.76342 8.33333
1.49702 1.32625 10
-3.51814 1.03302 1.66667
-3.81656 1.19745 0
-3.49739 1.94121 0
-2.18287 2.51917 3.33333
-0.426945 2.96946 5
1.10777 2.42569 6.66667
1.96292 1.2615 8.33333
1.77091 0.929446 10
-3.0846 1.98235 1.66667
-3.03503 2.60549 0
-1.38472 3.03211 3.33333
0.426945 2.96946 5
1.7463 2.01533 6.66667
2.23882 0.657376 8.33333
-2.40116 2.77108 1.66667
-2.44842 3.1631 0
-0.474383 3.2994 3.33333
1.24625 2.7289 5
2.24334 1.44171 6.66667
-1.52319 3.33532 1.66667
-1.76158 3.59122 0
-1.00261 3.87231 0
0.474383 3.2994 3.33333
1.96458 2.26725 5
2.55865 0.751287 6.66667
-0.521821 3.62935 1.66667
-0.202597 3.99487 0
1.38472 3.03211 3.33333
2.52376 1.62192 5
0.521821 3.62935 1.66667
0.605711 3.95387 0
1.38922 3.75101 0
2.18287 2.51917 3.33333
2.87848 0.845198 5
1.52319 3.33532 1.66667
2.11586 3.39458 0
2.80418 1.80214 3.33333
2.40116 2.77108 1.66667
2.75587 2.89917 0
3.19831 0.939109 3.33333
3.0846 1.98235 1.66667
3.28305 2.28507 0
3.67583 1.57742 0
3.51814 1.03302 1.66667
3 0 1 2
3 3 4 5
3 0 6 1
3 4 7 5
3 8 2 9
3 8 0 2
3 10 8 9
3 10 9 11
3 12 0 8
3 12 13 0
3 14 11 15
3 14 10 11
3 16 8 10
3 16 12 8
3 17 15 18
3 17 14 15
3 19 13 12
3 19 20 13
3 19 21 20
3 22 14 17
3 22 16 10
3 22 10 14
3 23 17 18
3 23 18 24
3 25 19 12
3 25 12 16
3 26 22 17
3 27 24 28
3 27 28 29
3 27 23 24
3 30 21 19
3 30 19 25
3 31 16 22
3 31 25 16
3 32 17 23
3 32 26 17
3 33 27 29
3 33 29 34
3 35 30 25
3 36 31 22
3 36 22 26
3 37 23 27
3 37 32 23
3 38 34 39
3 38 33 34
3 40 41 3
3 40 3 5
3 40 5 21
3 40 21 30
3 40 30 35
3 42 25 31
3 42 35 25
3 43 36 26
3 43 26 32
3 44 37 27
3 44 33 38
3 44 27 33
3 45 38 39
3 45 39 46
3 47 48 41
3 47 49 48
3 47 40 35
3 47 41 40
3 50 31 36
3 50 36 43
3 50 42 31
3 51 43 32
3 51 32 37
3 52 44 38
3 53 46 54
3 53 45 46
3 55 56 49
3 55 47 35
3 55 42 50
3 55 49 47
3 55 35 42
3 57 50 43
3 57 43 51
3 58 44 52
3 58 51 37
3 58 37 44
3 59 52 38
3 59 38 45
3 60 54 61
3 60 61 62
3 60 53 54
3 63 64 56
3 63 50 57
3 63 55 50
3 63 56 55
3 65 57 51
3 66 58 52
3 67 59 45
3 67 45 53
3 68 62 69
3 68 60 62
3 70 71 64
3 70 72 71
3 70 64 63
3 70 63 57
3 73 65 51
3 73 51 58
3 74 52 59
3 74 66 52
3 75 53 60
3 75 67 53
3 76 69 77
3 76 68 69
3 78 79 72
3 78 72 70
3 78 57 65
3 78 70 57
3 80 58 66
3 80 73 58
3 80 66 74
3 81 59 67
3 81 74 59
3 82 60 68
3 82 75 60
3 83 77 84
3 83 76 77
3 85 86 79
3 85 87 86
3 85 79 78
3 85 65 73
3 85 78 65
3 88 80 74
3 89 81 67
3 89 67 75
3 89 75 82
3 90 68 76
3 90 82 68
3 91 84 92
3 91 83 84
3 93 94 87
3 93 87 85
3 93 73 80
3 93 85 73
3 93 80 88
3 95 74 81
3 95 88 74
3 96 89 82
3 97 90 76
3 97 76 83
3 98 92 99
3 98 91 92
3 100 93 88
3 100 101 94
3 100 88 95
3 100 94 93
3 102 95 81
3 102 81 89
3 102 89 96
3 103 96 82
3 103 82 90
3 104 97 83
3 104 83 91
3 105 99 106
3 105 106 107
3 105 98 99
3 108 109 101
3 108 110 109
3 108 100 95
3 108 101 100
3 111 102 96
3 111 96 103
3 112 103 90
3 112 90 97
3 113 104 91
3 113 91 98
3 114 105 107
3 114 107 115
3 116 110 108
3 116 117 110
3 116 108 95
3 116 95 102
3 118 111 103
3 119 104 113
3 119 112 97
3 119 97 104
3 120 98 105
3 120 113 98
3 121 114 115
3 121 115 122
3 123 117 116
3 123 124 117
3 123 125 124
3 123 102 111
3 123 116 102
3 123 111 118
3 126 103 112
3 126 118 103
3 126 112 119
3 127 119 113
3 128 105 114
3 128 120 105
3 129 121 122
3 129 122 130
3 131 132 125
3 131 125 123
3 131 123 118
3 133 126 119
3 133 119 127
3 134 113 120
3 134 127 113
3 134 120 128
3 135 114 121
3 135 128 114
3 136 6 0
3 136 130 6
3 136 0 13
3 136 129 130
3 137 132 131
3 137 138 132
3 137 118 126
3 137 131 118
3 137 126 133
3 139 133 127
3 140 128 135
3 140 134 128
3 141 121 129
3 141 135 121
3 141 129 136
3 142 143 138
3 142 144 143
3 142 137 133
3 142 138 137
3 145 139 127
3 145 127 134
3 146 140 135
3 147 136 13
3 147 141 136
3 148 142 133
3 148 144 142
3 148 149 144
3 148 133 139
3 148 139 145
3 150 145 134
3 150 140 146
3 150 134 140
3 151 146 135
3 151 141 147
3 151 135 141
3 152 148 145
3 152 153 149
3 152 154 153
3 152 149 148
3 155 150 146
3 156 147 13
3 156 151 147
3 156 13 20
3 157 150 155
3 157 158 154
3 157 154 152
3 157 152 145
3 157 145 150
3 159 146 151
3 159 155 146
3 160 158 157
3 160 157 155
3 160 161 158
3 162 159 151
3 162 156 20
3 162 20 21
3 162 21 5
3 162 151 156
3 163 155 159
3 163 164 161
3 163 165 164
3 163 159 162
3 163 161 160
3 163 160 155
3 166 5 7
3 166 7 165
3 166 162 5
3 166 165 163
3 166 163 162
3 144 138 143
3 154 144 149
3 154 149 153
3 101 109 110
3 87 94 101
3 164 154 158
3 164 158 161
3 164 144 154
3 86 87 101
3 7 125 132
3 7 132 138
3 7 164 165
3 7 138 144
3 7 144 164
3 3 110 117
3 3 117 124
3 3 124 125
3 3 7 4
3 3 125 7
3 64 71 72
3 64 72 79
3 64 79 86
3 64 86 101
3 48 3 41
3 48 101 110
3 48 110 3
3 49 56 64
3 49 64 101
3 49 101 48
3 46 39 54
3 77 122 84
3 84 122 92
3 92 122 99
3 99 122 106
3 106 122 107
3 107 122 115
3 69 6 77
3 122 6 130
3 77 6 122
3 28 24 29
3 1 9 2
3 54 9 61
3 61 9 62
3 62 9 69
3 6 9 1
3 39 9 54
3 69 9 6
3 18 15 24
3 29 11 34
3 34 11 39
3 24 11 29
3 39 11 9
3 15 11 24
