OFF
949 1894 0
1.79204 0.209723 -2.32447
2.45189 -3.0027e-16 -2.17877
1.28945 -1.57912e-16 -2.41544
2.66405 0.311775 -2.09249
3.41559 -4.1829e-16 -1.82577
-1.02344 1.69208 -1.76777
-0.105233 1.36701 -2.09249
-0.792014 1.30945 -2.09249
-0.135982 1.76646 -1.76777
-1.76777 1.53093 -1.76777
-1.36802 1.18474 -2.09249
-0.160961 2.09094 -1.36802
0.982189 2.03404 -1.36802
0.829768 1.71839 -1.76777
-2.41905 1.28921 -1.76777
-1.87203 0.997679 -2.09249
-1.21144 2.0029 -1.36802
-2.73605 -2.89554e-16 -2.09249
-2.7077 0.196434 -2.09249
-1.8214 0.132137 -2.32447
-1.84047 -2.07868e-16 -2.32447
-1.8214 -0.132137 -2.32447
-2.99161 0.942111 -1.76777
-2.31512 0.729073 -2.09249
-2.7077 -0.196434 -2.09249
-2.09249 1.81215 -1.36802
-3.39123 0.499896 -1.76777
-2.62437 0.386855 -2.09249
-2.86341 1.52602 -1.36802
-3.4989 0.253833 -1.76777
-1.34575 2.22495 -0.920237
-0.178805 2.32275 -0.920237
-3.53553 -3.46855e-16 -1.76777
-3.4989 -0.253833 -1.76777
-2.32447 2.01305 -0.920237
-4.18498 -3.75348e-16 -1.36802
-4.14161 0.30046 -1.36802
-4.14161 -0.30046 -1.36802
4.07485 0.476881 1.36802
3.91349 -4.79264e-16 1.55601
4.31012 -5.27837e-16 1.26717
1.36802 -1.18474 -2.09249
0.642134 -1.32981 -2.09249
0.431948 -0.894534 -2.32447
0.920237 -0.796948 -2.32447
1.79204 -0.209723 -2.32447
1.98224 -0.942959 -2.09249
1.3334 -0.634306 -2.32447
3.44249 0.402877 1.76777
3.26093 -3.99349e-16 1.89515
2.42035 -0.637939 -2.09249
1.62811 -0.429126 -2.32447
3.12759 0.824347 1.76777
3.7021 0.975772 1.36802
-0.160961 -2.09094 -1.36802
-0.135982 -1.76646 -1.76777
0.829768 -1.71839 -1.76777
-2.32447 -2.01305 -0.920237
-2.09249 -1.81215 -1.36802
-1.21144 -2.0029 -1.36802
2.66405 -0.311775 -2.09249
2.56146 1.2185 1.76777
3.03197 1.44232 1.36802
0.982189 -2.03404 -1.36802
-1.34575 -2.22495 -0.920237
1.76777 1.53093 1.76777
2.09249 1.81215 1.36802
2.09249 -1.81215 -1.36802
1.76777 -1.53093 -1.76777
-0.178805 -2.32275 -0.920237
-1.21144 2.0029 1.36802
-0.160961 2.09094 1.36802
-0.178805 2.32275 0.920237
-1.34575 2.22495 0.920237
3.44249 -0.402877 -1.76777
4.13829 -5.06794e-16 -1.40308
0.829768 1.71839 1.76777
0.982189 2.03404 1.36802
3.03197 -1.44232 -1.36802
2.56146 -1.2185 -1.76777
-2.09249 1.81215 1.36802
-2.32447 2.01305 0.920237
-0.135982 1.76646 1.76777
3.7021 -0.975772 -1.36802
3.12759 -0.824347 -1.76777
4.07485 -0.476881 -1.36802
-3.53553 -3.46855e-16 1.76777
-4.14161 0.30046 1.36802
-4.18498 -3.75348e-16 1.36802
-3.4989 0.253833 1.76777
-3.4989 -0.253833 1.76777
-4.14161 -0.30046 1.36802
-3.39123 -0.499896 1.76777
-4.01416 -0.591722 1.36802
-2.99161 -0.942111 1.76777
-3.54113 -1.11517 1.36802
-1.21144 -2.0029 1.36802
-2.09249 -1.81215 1.36802
-2.32447 -2.01305 0.920237
-1.34575 -2.22495 0.920237
-0.178805 -2.32275 0.920237
-2.41905 -1.28921 1.76777
-2.86341 -1.52602 1.36802
-0.160961 -2.09094 1.36802
4.07485 -0.476881 1.36802
3.12759 -0.824347 1.76777
3.7021 -0.975772 1.36802
3.44249 -0.402877 1.76777
1.5245 0.178413 -2.37427
0.853214 0.157948 -2.45826
0.659152 0.313561 -2.45826
1.3334 0.634306 -2.32447
0.740074 0.264601 -2.45826
1.4683 0.271812 -2.37427
1.62811 0.429126 -2.32447
0.804837 0.212133 -2.45826
0.563331 0.357219 -2.45826
0.920237 0.796948 -2.32447
0.454908 0.393962 -2.45826
0.337056 0.422539 -2.45826
0.431948 0.894534 -2.32447
2.1536 0.398677 -2.22071
2.42035 0.637939 -2.09249
0.213528 0.442202 -2.45826
0.0882657 0.452762 -2.45826
-0.0707874 0.919556 -2.32447
0.0261697 0.454719 -2.45826
1.86803 0.667882 -2.22071
1.98224 0.942959 -2.09249
2.95543 0.547112 -1.94088
3.12759 0.824347 -1.76777
3.44249 0.402877 -1.76777
0.850766 1.06653 -2.22071
0.642134 1.32981 -2.09249
1.36802 1.18474 -2.09249
2.56353 0.916546 -1.94088
2.56146 1.2185 -1.76777
0.222792 1.14282 -2.22071
3.64027 0.673891 -1.57575
3.7021 0.975772 -1.36802
4.07485 0.476881 -1.36802
-0.386273 1.13188 -2.22071
-0.532769 0.880838 -2.32447
1.16752 1.46362 -1.94088
1.76777 1.53093 -1.76777
-0.919542 1.05217 -2.22071
-0.920237 0.796948 -2.32447
-1.25927 0.671114 -2.32447
2.40348 1.52409 -1.57575
2.09249 1.81215 -1.36802
3.03197 1.44232 -1.36802
4.16511 0.771049 -1.14824
4.11252 1.08395 -0.920237
4.5266 0.52975 -0.920237
3.6128 1.2917 -1.14824
3.36811 1.60222 -0.920237
4.60106 0.538465 -0.817072
4.62291 -5.66143e-16 -0.952458
-1.76733 0.7332 -2.22071
-1.55732 0.49043 -2.32447
4.63472 0.542403 -0.765272
4.84913 -5.93847e-16 -0.609491
4.79562 0.363201 -0.607122
2.75 1.74383 -1.14824
2.32447 2.01305 -0.920237
4.72326 0.552765 -0.605937
4.41981 0.927788 -0.711014
4.54913 0.842139 -0.605937
4.02257 1.30353 -0.711014
4.29119 1.13104 -0.605937
4.69821 0.758585 -0.395282
4.35184 1.14703 -0.44688
3.51487 1.67204 -0.604753
4.00166 1.43073 -0.44688
-2.09082 -0.474938 -2.22071
-1.76535 -0.260228 -2.32447
-1.55732 -0.49043 -2.32447
-2.31512 -0.729073 -2.09249
-2.62437 -0.386855 -2.09249
-3.53415 0.802796 -1.57575
-4.01416 0.591722 -1.36802
-3.54113 1.11517 -1.36802
0.0882657 -0.452762 -2.45826
-0.0707874 -0.919556 -2.32447
0.0261697 -0.454719 -2.45826
0.213528 -0.442202 -2.45826
-2.86927 -0.651766 -1.94088
-3.39123 -0.499896 -1.76777
-2.99161 -0.942111 -1.76777
0.337056 -0.422539 -2.45826
-3.41805 1.41802 -1.14824
-3.93372 1.2388 -0.920237
-3.18085 1.6952 -0.920237
-0.919542 -1.05217 -2.22071
-0.792014 -1.30945 -2.09249
-1.36802 -1.18474 -2.09249
-1.87203 -0.997679 -2.09249
-1.25927 -0.671114 -2.32447
-0.920237 -0.796948 -2.32447
-0.532769 -0.880838 -2.32447
0.454908 -0.393962 -2.45826
-2.42534 -1.00618 -1.94088
-2.41905 -1.28921 -1.76777
4.54146 0.840719 0.622072
4.69153 0.757505 0.416632
4.34658 1.14564 0.462938
4.7153 0.551833 0.622072
0.563331 -0.357219 -2.45826
4.62452 0.54121 0.781373
4.61739 -5.65467e-16 0.959133
4.83245 -5.91804e-16 0.641763
4.78477 0.362379 0.628636
-4.04368 0.918539 -1.14824
-4.45919 0.657323 -0.920237
4.5938 0.537614 0.827783
4.11252 1.08395 0.920237
4.5266 0.52975 0.920237
4.28396 1.12914 0.622072
3.99682 1.429 0.462938
-0.386273 -1.13188 -2.22071
-0.105233 -1.36701 -2.09249
0.659152 -0.313561 -2.45826
4.41388 0.926543 0.721765
-1.86997 -1.26837 -1.94088
-1.76777 -1.53093 -1.76777
-3.53415 -0.802796 -1.57575
-3.54113 -1.11517 -1.36802
-4.01416 -0.591722 -1.36802
0.740074 -0.264601 -2.45826
4.46607 0.250312 1.09586
4.01717 1.30178 0.721765
3.36811 1.60222 0.920237
-0.192308 2.49815 0
0.255242 2.47854 -0.300901
-1.04077 2.42666 -0.300901
0.485075 2.48821 0
3.51094 1.67017 0.615509
-1.2619 -1.44391 -1.94088
-1.02344 -1.69208 -1.76777
-0.841014 2.46438 0
0.709093 2.45637 0.300901
-1.44737 2.39296 0
-2.15869 2.23483 -0.300901
-0.530089 -1.55329 -1.94088
-2.00207 2.29083 0
-0.624326 2.46212 0.300901
-4.04368 -0.918539 -1.14824
-3.93372 -1.2388 -0.920237
-4.45919 -0.657323 -0.920237
-2.5 2.16506 0
-3.09762 1.93924 -0.300901
1.4683 -0.271812 -2.37427
0.804837 -0.212133 -2.45826
0.853214 -0.157948 -2.45826
-2.9668 2.01234 0
-1.55432 -1.7785 -1.57575
-2.86341 -1.52602 -1.36802
1.5245 -0.178413 -2.37427
-1.81005 2.31093 0.300901
-3.42105 1.82321 0
-3.68271 1.66399 -0.300901
1.16752 -1.46362 -1.94088
-3.84793 1.59636 0
-2.79149 2.05216 0.300901
3.31108 0.387498 1.83277
-4.79592 0.706959 0
-4.6091 0.921139 -0.300901
-4.87258 0.473246 -0.300901
-4.55224 1.03406 0
-3.95235 1.5014 0.300901
-4.23077 1.33235 0
-4.88417 0.534996 0
2.56353 -0.916546 -1.94088
-4.94819 0.358974 0
-4.95791 0.119338 -0.300901
2.91531 0.34118 2.00221
2.39763 -2.93625e-16 2.19382
-4.987 0.180187 0
-4.42058 1.12875 0.300901
-5 -2.96059e-16 0
-4.95791 -0.119338 -0.300901
2.80783 0.519789 2.00221
-4.987 -0.180187 0
2.66993 0.8652 1.92855
-4.94819 -0.358974 0
-4.82208 -0.58852 -0.300901
2.64863 0.698107 2.00221
-4.82208 0.58852 0.300901
-4.88417 -0.534996 0
-4.79592 -0.706959 0
-4.42058 -1.12875 -0.300901
-4.94072 0.238262 0.300901
2.30428 0.372055 2.18727
-4.55224 -1.03406 0
-4.94072 -0.238262 0.300901
-4.23077 -1.33235 0
-3.68271 -1.66399 -0.300901
2.04535 0.972982 2.06336
2.15257 0.567358 2.18397
-4.87258 -0.473246 0.300901
-3.84793 -1.59636 0
1.97935 0.707685 2.18397
1.63978 1.14906 2.06336
-4.6091 -0.921139 0.300901
2.75 -1.74383 -1.14824
3.36811 -1.60222 -0.920237
2.32447 -2.01305 -0.920237
-3.42105 -1.82321 0
-2.79149 -2.05216 -0.300901
1.76293 0.838631 2.18397
-3.41805 1.41802 1.14824
-3.54113 1.11517 1.36802
-2.86341 1.52602 1.36802
-3.18085 1.6952 0.920237
-3.93372 1.2388 0.920237
1.17034 1.28458 2.06336
-1.55432 1.7785 1.57575
-1.02344 1.69208 1.76777
-1.76777 1.53093 1.76777
-2.41905 1.28921 1.76777
-2.9668 -2.01234 0
1.50665 0.955396 2.18397
-3.95235 -1.5014 0.300901
-2.5 -2.16506 -5.55112e-17
-2.15869 -2.23483 -0.300901
-4.04368 0.918539 1.14824
-4.45919 0.657323 0.920237
1.36472 0.442242 2.36407
-2.00207 -2.29083 -4.5146e-17
-3.09762 -1.93924 0.300901
-1.44737 -2.39296 -3.50597e-17
-0.624326 -2.46212 -0.300901
0.573875 1.18846 2.18065
1.13957 0.722622 2.32447
-0.841014 -2.46438 -2.55812e-17
0.920237 0.796948 2.32447
0.125738 1.22099 2.18065
-0.192308 -2.49815 -1.70804e-17
0.255242 -2.47854 -0.300901
0.681833 0.854758 2.32447
4.02257 -1.30353 -0.711014
3.51487 -1.67204 -0.604753
4.11252 -1.08395 -0.920237
-1.81005 -2.31093 0.300901
-3.53415 0.802796 1.57575
-4.01416 0.591722 1.36802
-3.39123 0.499896 1.76777
-2.99161 0.942111 1.76777
0.485075 -2.48821 -9.9423e-18
0.431948 0.894534 2.32447
4.41981 -0.927788 -0.711014
-1.04077 -2.42666 0.300901
4.60106 -0.538465 -0.817072
4.5266 -0.52975 -0.920237
4.29119 -1.13104 -0.605937
0.178553 0.915896 2.32447
-4.04368 -0.918539 1.14824
-4.45919 -0.657323 0.920237
-3.93372 -1.2388 0.920237
4.63472 -0.542403 -0.765272
4.00166 -1.43073 -0.44688
0.052939 0.919856 2.32447
4.54913 -0.842139 -0.605937
-0.0707874 0.919556 2.32447
-0.307557 1.21289 2.18065
4.35184 -1.14703 -0.44688
-1.1446 1.08039 2.18065
4.72326 -0.552765 -0.605937
-3.41805 -1.41802 1.14824
-3.18085 -1.6952 0.920237
0.709093 -2.45637 0.300901
4.79562 -0.363201 -0.607122
4.69821 -0.758585 -0.395282
-1.55432 -1.7785 1.57575
-0.135982 -1.76646 1.76777
-1.76777 -1.53093 1.76777
-1.02344 -1.69208 1.76777
4.28396 -1.12914 0.622072
3.51094 -1.67017 0.615509
3.99682 -1.429 0.462938
4.34658 -1.14564 0.462938
4.01717 -1.30178 0.721765
4.11252 -1.08395 0.920237
3.36811 -1.60222 0.920237
4.54146 -0.840719 0.622072
4.69153 -0.757505 0.416632
4.41388 -0.926543 0.721765
4.7153 -0.551833 0.622072
2.75 -1.74383 1.14824
2.32447 -2.01305 0.920237
3.03197 -1.44232 1.36802
2.09249 -1.81215 1.36802
4.62452 -0.54121 0.781373
4.78477 -0.362379 0.628636
4.5938 -0.537614 0.827783
4.5266 -0.52975 0.920237
1.43806 -1.80278 1.57575
1.76777 -1.53093 1.76777
0.829768 -1.71839 1.76777
0.982189 -2.03404 1.36802
2.40348 -1.52409 1.57575
2.56146 -1.2185 1.76777
4.46607 -0.250312 1.09586
0.573875 -1.18846 2.18065
0.125738 -1.22099 2.18065
1.17034 -1.28458 2.06336
1.63978 -1.14906 2.06336
-0.0707874 -0.919556 2.32447
-0.307557 -1.21289 2.18065
2.66993 -0.8652 1.92855
0.052939 -0.919856 2.32447
0.178553 -0.915896 2.32447
2.04535 -0.972982 2.06336
3.31108 -0.387498 1.83277
0.431948 -0.894534 2.32447
1.50665 -0.955396 2.18397
2.64863 -0.698107 2.00221
0.681833 -0.854758 2.32447
1.76293 -0.838631 2.18397
2.80783 -0.519789 2.00221
0.920237 -0.796948 2.32447
1.97935 -0.707685 2.18397
2.91531 -0.34118 2.00221
1.13957 -0.722622 2.32447
2.15257 -0.567358 2.18397
2.30428 -0.372055 2.18727
1.36472 -0.442242 2.36407
0.437449 0.0511949 -2.48989
3.06162e-16 -3.7494e-32 -2.5
0.430321 0.0645551 -2.48989
0.421322 0.0779955 -2.48989
0.410378 0.0914272 -2.48989
0.397433 0.104753 -2.48989
0.382459 0.117867 -2.48989
0.365453 0.130662 -2.48989
0.346444 0.143023 -2.48989
0.336206 0.149006 -2.48989
0.325493 0.154838 -2.48989
1.16154 0.856722 -2.27568
1.42191 0.90166 -2.22071
1.69703 0.930651 -2.15961
-0.398255 0.658444 -2.4035
-0.0349929 0.454571 -2.45826
-0.300901 0.260588 -2.48183
-0.550887 0.630342 -2.4035
3.95611 0.339456 -1.49066
-0.687896 0.595735 -2.4035
1.95131 1.23736 -1.94088
3.16145 0.974304 -1.67393
-0.816341 0.553712 -2.4035
-0.879508 0.528977 -2.4035
-0.941331 0.501672 -2.4035
2.96285 1.16632 -1.64167
3.15756 1.12893 -1.57575
3.11458 1.2858 -1.47363
4.47138 0.383668 -1.05095
1.62023 1.67083 -1.67393
1.76215 1.81718 -1.47363
-1.82174 0.491513 -2.27568
-1.76535 0.260228 -2.32447
1.88439 1.94324 -1.2594
1.6454 2.0627 -1.14824
4.89662 0.370851 -0.34386
4.96562 -6.08114e-16 -0.292647
1.98567 2.04768 -1.03502
1.09108 2.25955 -0.920237
4.95584 0.245852 -0.222429
4.99991 -6.12312e-16 0.0153033
4.92968 0.373355 -0.187517
2.36325 2.04664 -0.815499
2.38075 2.06179 -0.762907
-0.941331 -0.501672 -2.4035
-0.879508 -0.528977 -2.4035
-0.816341 -0.553712 -2.4035
4.24977 1.28773 -0.276823
4.65815 0.900198 -0.122735
3.9483 1.50545 -0.293844
-3.00511 1.091 -1.67393
-0.687896 -0.595735 -2.4035
4.18335 1.35563 -0.192751
2.79218 2.02436 -0.450448
1.7246 2.26635 -0.608338
3.9136 1.54058 -0.21807
4.95053 0.245589 0.250488
4.95772 -6.07145e-16 0.324436
4.92551 0.373039 0.213718
-0.550887 -0.630342 -2.4035
2.03855 2.23753 -0.452232
2.36822 2.16985 -0.3737
4.65608 0.899798 0.143521
-0.398255 -0.658444 -2.4035
-0.0349929 -0.454571 -2.45826
-2.03818 -0.739962 -2.15961
-3.26832 1.18656 -1.47363
4.88903 0.370276 0.370457
2.69223 2.09228 -0.245603
3.27981 1.88698 0.00509682
-2.90957 1.74995 -1.03502
4.24666 1.28678 0.292683
4.18123 1.35494 0.208472
3.91173 1.53985 0.231206
3.94558 1.50441 0.307963
1.62721 2.3619 -0.0972521
1.84915 2.31813 -0.146398
1.17347 2.43017 0
2.28889 2.22266 0.00254787
0.336206 -0.149006 -2.48989
0.325493 -0.154838 -2.48989
0.346444 -0.143023 -2.48989
0.365453 -0.130662 -2.48989
-4.14292 0.610702 -1.2594
0.382459 -0.117867 -2.48989
2.82391 2.04736 0.254384
1.7766 2.33469 0.1007
0.397433 -0.104753 -2.48989
2.06893 2.27088 0.151606
0.410378 -0.0914272 -2.48989
0.421322 -0.0779955 -2.48989
-3.00511 -1.091 -1.67393
0.430321 -0.0645551 -2.48989
2.91833 1.97733 0.459369
2.57291 2.10935 0.381691
0.437449 -0.0511949 -2.48989
4.38215 0.657394 1.00847
2.25023 2.18512 0.457584
-4.14292 -0.610702 -1.2594
-3.26832 -1.18656 -1.47363
-4.39264 0.957427 -0.713808
-3.8609 1.46666 -0.610131
4.18184 0.774145 1.13082
4.16525 0.624855 1.23378
-4.14301 1.30471 -0.50656
2.37902 2.06029 0.768276
2.36202 2.04557 0.81907
2.32447 2.01305 0.920237
1.09108 2.25955 0.920237
-3.49506 -1.26888 -1.2594
0.305742 -1.56831 -1.94088
-4.20001 1.32266 -0.300901
-3.41805 -1.41802 -1.14824
-3.68291 -1.33708 -1.03502
-3.18085 -1.6952 -0.920237
1.95131 -1.23736 -1.94088
2.25561 -1.23697 -1.85687
-3.8609 -1.46666 -0.610131
-4.50247 -0.899827 -0.610131
-4.33192 -1.02426 -0.713808
-4.62626 -0.801769 -0.50656
-3.35009 1.78539 0.50656
2.6921 -0.599769 -2.01951
1.88439 -1.94324 -1.2594
-2.90957 1.74995 1.03502
1.6454 -2.0627 -1.14824
1.79526 0.135966 2.32933
1.19528 -1.46379e-16 2.42751
1.98567 -2.04768 -1.03502
1.09108 -2.25955 -0.920237
3.33065 -1.37499 -1.2594
0.602709 1.56744 1.92414
1.35955 0.188712 2.39839
3.6128 -1.2917 -1.14824
2.36325 -2.04664 -0.815499
3.50966 -1.4489 -1.03502
2.38075 -2.06179 -0.762907
-4.39264 -0.957427 0.713808
-3.26832 1.18656 1.47363
-4.14292 0.610702 1.2594
1.10561 0.667618 2.34493
0.773402 0.107352 2.46758
-1.15427 1.39327 1.99392
2.79218 -2.02436 -0.450448
1.7246 -2.26635 -0.608338
2.03855 -2.23753 -0.452232
0.774512 0.238692 2.45826
2.36822 -2.16985 -0.3737
-3.00511 1.091 1.67393
0.740074 0.264601 2.45826
0.701579 0.289634 2.45826
0.680847 0.30175 2.45826
1.62721 -2.3619 -0.0972521
1.17347 -2.43017 -4.53152e-18
1.84915 -2.31813 -0.146398
2.69223 -2.09228 -0.245603
-1.74304 1.23075 1.99392
-4.14292 -0.610702 1.2594
-2.0189 1.1204 1.99392
-2.51667 0.984855 1.92267
2.28889 -2.22266 0.00254787
3.27981 -1.88698 0.00509682
3.9483 -1.50545 -0.293844
-2.27983 0.987363 1.99392
1.7766 -2.33469 0.1007
-2.75361 0.811022 1.92267
-2.40164 0.912322 1.99392
3.9136 -1.54058 -0.21807
-2.90957 -1.74995 1.03502
4.24977 -1.28773 -0.276823
2.06893 -2.27088 0.151606
-2.51593 0.831758 1.99392
-2.88909 0.683109 1.92267
4.18335 -1.35563 -0.192751
2.82391 -2.04736 0.254384
4.89662 -0.370851 -0.34386
4.65815 -0.900198 -0.122735
4.92968 -0.373355 -0.187517
4.95584 -0.245852 -0.222429
3.91173 -1.53985 0.231206
2.91833 -1.97733 0.459369
2.57291 -2.10935 0.381691
2.25023 -2.18512 0.457584
3.94558 -1.50441 0.307963
4.24666 -1.28678 0.292683
4.65608 -0.899798 0.143521
4.18123 -1.35494 0.208472
-2.88909 -0.683109 1.92267
2.37902 -2.06029 0.768276
-2.75361 -0.811022 1.92267
2.36202 -2.04557 0.81907
1.09108 -2.25955 0.920237
4.92551 -0.373039 0.213718
-2.51667 -0.984855 1.92267
-2.51593 -0.831758 1.99392
4.95053 -0.245589 0.250488
1.98567 -2.04768 1.03502
-2.40164 -0.912322 1.99392
-2.27983 -0.987363 1.99392
1.6454 -2.0627 1.14824
4.88903 -0.370276 0.370457
-1.84047 -2.07868e-16 2.32447
-1.88668 0.394056 2.28141
-2.44521 -2.6473e-16 2.18065
-2.0189 -1.1204 1.99392
-2.07207 -0.27904 2.25804
1.88439 -1.94324 1.2594
0.669774 -1.99155 1.47363
-1.74304 -1.23075 1.99392
3.50966 -1.4489 1.03502
-1.15427 -1.39327 1.99392
-1.1446 -1.08039 2.18065
3.6128 -1.2917 1.14824
3.33065 -1.37499 1.2594
4.38215 -0.657394 1.00847
4.18184 -0.774145 1.13082
3.11458 -1.2858 1.47363
4.16525 -0.624855 1.23378
0.602709 -1.56744 1.92414
2.86374 -1.18224 1.67393
1.10561 -0.667618 2.34493
1.79526 -0.135966 2.32933
0.701579 -0.289634 2.45826
0.680847 -0.30175 2.45826
0.740074 -0.264601 2.45826
1.35955 -0.188712 2.39839
0.774512 -0.238692 2.45826
0.773402 -0.107352 2.46758
0.211385 0.0353601 -2.49751
0.210239 0.0370281 -2.49751
0.209034 0.0386966 -2.49751
0.380706 0.2808 -2.47688
0.0825774 0.10352 -2.49751
0.339238 0.293789 -2.47688
0.296007 0.30525 -2.47688
0.273835 0.310381 -2.47688
0.0509709 0.261457 -2.48616
-0.0172797 0.22447 -2.48989
-1.04021 0.236288 -2.43386
-0.617718 0.140317 -2.47688
-0.909815 -1.08737e-16 -2.45826
-1.22026 -1.43236e-16 -2.42441
-1.18179 0.268448 -2.41429
-1.46869 0.216497 -2.37989
-1.04021 -0.236288 -2.43386
-1.18179 -0.268448 -2.41429
-1.46869 -0.216497 -2.37989
0.716238 2.12971 -1.2594
-0.622505 -0.331757 -2.45826
-0.271672 -0.310856 -2.47688
-0.307397 -0.163824 -2.48989
-0.089253 -0.102126 -2.49751
0.754735 2.24418 -1.03502
4.92117 0.438956 -0.0533728
4.61015 0.967744 0.0101979
-0.0114616 -0.148891 -2.49556
4.91018 0.471561 0.0127501
4.91982 0.438836 0.0791128
0.752936 2.35022 -0.764697
4.11004 1.42249 -0.0585129
4.06715 1.45414 0.00764684
4.10937 1.42225 0.073957
1.5728 2.3432 -0.375475
0.251353 -0.3151 -2.47688
1.33263 2.38585 -0.337247
0.273835 -0.310381 -2.47688
0.296007 -0.30525 -2.47688
0.339238 -0.293789 -2.47688
0.380706 -0.2808 -2.47688
0.209034 -0.0386966 -2.49751
0.210239 -0.0370281 -2.49751
-3.1147 1.79959 -0.765591
0.211385 -0.0353601 -2.49751
-2.82716 1.96965 -0.610131
-4.45132 0.322929 -1.09185
-4.60077 0.33377 -0.920237
-4.64894 -3.74163e-16 -0.920237
1.66893 2.33179 0.341231
-3.06821 1.92083 -0.454908
2.75178 1.99506 0.613716
1.86764 2.23686 0.611923
-4.45132 -0.322929 -1.09185
-4.60077 -0.33377 -0.920237
-4.61934 0.435965 -0.851676
-4.62368 0.487285 -0.817284
3.88132 1.19616 1.02618
0.654562 2.44534 0.403984
-3.86877 -0.96024 -1.2594
0.627098 2.43802 0.4558
3.61766 1.29343 1.14244
-4.52759 0.932002 -0.50656
-4.79015 0.0640298 -0.713808
3.68531 1.13575 1.25088
-4.65231 -0.413581 -0.817284
0.347375 2.41802 0.610728
-4.58202 0.915726 -0.403391
-4.67244 -0.453808 -0.765591
0.825648 2.34352 0.766486
-4.52177 -0.685885 -0.817284
-4.80592 0.533082 -0.437719
-4.76566 0.561706 -0.50656
-4.7244 -0.40062 -0.713808
-4.89181 0.104651 -0.50656
-4.84491 0.0971645 -0.610131
-4.67466 -0.570528 -0.679256
-2.90957 -1.74995 -1.03502
-2.62137 2.0903 0.403391
-4.88335 -0.35427 -0.403391
-4.84394 -0.470464 -0.403391
-2.53419 2.07682 0.57558
-3.1147 -1.79959 -0.765591
-4.04565 1.40235 0.437719
-4.34258 1.17165 0.403391
-4.62626 0.801769 0.50656
-3.02595 -1.89437 -0.610131
-4.08424 1.35024 0.50656
0.716238 -2.12971 -1.2594
-4.00534 1.38838 0.558313
-3.90285 1.43864 0.610131
-4.2426 1.2072 0.541053
-4.50247 0.899827 0.610131
-3.67324 1.5386 0.713808
-4.12818 1.27172 0.610131
-4.33192 1.02426 0.713808
3.12362 -0.316165 -1.92634
-4.89891 0.295693 0.403391
0.754735 -2.24418 -1.03502
-3.80341 1.40198 0.817284
-4.67466 0.570528 0.679256
-4.88783 -0.143837 0.50656
0.752936 -2.35022 -0.764697
-4.52177 0.685885 0.817284
-4.67244 0.453808 0.765591
-4.7244 0.40062 0.713808
-4.60983 -0.880135 0.403391
-4.21875 -1.24255 0.50656
0.298342 -2.41996 -0.609533
-4.7377 -0.61802 0.50656
-4.84491 -0.0971645 0.610131
-4.65231 0.413581 0.817284
-4.64894 -3.74163e-16 0.920237
-4.60077 0.33377 0.920237
-4.79015 -0.0640298 0.713808
3.8667 -0.912561 -1.29591
-4.54655 -0.908637 0.50656
3.94529 -0.878964 -1.2594
0.55204 -2.44288 -0.454016
-0.357181 1.54217 1.95955
-3.70704 -1.62841 0.403391
-4.62368 -0.487285 0.817284
-4.61934 -0.435965 0.851676
-4.60077 -0.33377 0.920237
4.16511 -0.771049 -1.14824
-4.45132 0.322929 1.09185
4.15734 -0.926206 -1.03502
1.5728 -2.3432 -0.375475
1.33263 -2.38585 -0.337247
-3.54886 -1.66436 0.57558
-3.97761 -1.33608 0.713808
-4.45132 -0.322929 1.09185
0.434113 0.0578597 2.48989
3.06162e-16 -3.7494e-32 2.5
0.430321 0.0645551 2.48989
-3.84369 -1.37425 0.817284
0.42606 0.0712706 2.48989
-3.87633 -1.32972 0.851676
0.423752 0.0746326 2.48989
0.771982 0.569396 2.4035
0.659152 0.313561 2.45826
0.421322 0.0779955 2.48989
0.687896 0.595735 2.4035
0.600231 0.618976 2.4035
0.503785 -2.45425 0.403984
0.103307 0.529915 2.44265
-0.352224 0.74506 2.37989
1.66893 -2.33179 0.341231
-0.39821 0.739248 2.37989
4.11004 -1.42249 -0.0585129
4.61015 -0.967744 0.0101979
-0.443237 0.732813 2.37989
0.16644 0.208652 2.48989
4.06715 -1.45414 0.00764684
-2.79484 0.429927 2.0279
-2.94108 0.334387 1.99392
-1.62425 0.77596 2.23346
-0.0349929 0.454571 2.45826
-2.15695 0.673698 2.15245
-2.20087 0.637197 2.15245
4.10937 -1.42225 0.073957
-2.61508 0.402276 2.09249
-2.83072 -2.97233e-16 2.06077
0.825648 -2.34352 0.766486
1.86764 -2.23686 0.611923
0.200432 -2.42218 0.610728
4.92117 -0.438956 -0.0533728
4.91018 -0.471561 0.0127501
2.75178 -1.99506 0.613716
-2.94108 -0.334387 1.99392
-1.20507 0.552182 2.36264
-0.622505 0.331757 2.45826
-0.610131 0.528389 2.42441
4.91982 -0.438836 0.0791128
-2.79484 -0.429927 2.0279
0.754735 -2.24418 1.03502
-1.20964 0.425867 2.38806
-2.4394 -0.359589 2.15245
-1.90086 -0.598617 2.23346
0.716238 -2.12971 1.2594
-1.25259 0.28453 2.4035
-1.96121 -0.289099 2.28141
-2.01382 -0.85368 2.12305
-1.57051 -0.871562 2.20766
-0.357181 -1.54217 1.95955
-1.25927 -0.671114 2.32447
-1.02233 -0.885367 2.28141
-0.622505 -0.331757 2.45826
-1.03253 -0.325162 2.42441
-0.550887 -0.630342 2.4035
-0.443237 -0.732813 2.37989
-0.179895 -0.205842 2.48989
0.509684 -0.638949 2.4035
0.555273 -0.629379 2.4035
0.600231 -0.618976 2.4035
-0.0231462 -0.300679 2.48183
0.687896 -0.595735 2.4035
0.771982 -0.569396 2.4035
0.659152 -0.313561 2.45826
0.421322 -0.0779955 2.48989
0.423752 -0.0746326 2.48989
0.42606 -0.0712706 2.48989
0.430321 -0.0645551 2.48989
0.434113 -0.0578597 2.48989
0.0944754 0.0291157 -2.49938
-0.0428959 0.0709207 -2.4989
-0.0606868 0.0464586 -2.49938
-0.307397 0.163824 -2.48989
-0.20294 0.0460987 -2.49751
-0.830266 0.301428 -2.44679
-0.449272 -5.5089e-17 -2.48989
-0.550507 -0.0603008 -2.48407
-0.327915 -0.0359187 -2.49436
-0.617718 -0.140317 -2.47688
-0.35404 2.34705 -0.842638
0.0622728 -0.0459309 -2.49938
-0.583479 2.39313 -0.661676
0.107359 -0.0510712 -2.4989
-0.151725 2.44157 -0.531979
-1.80722 2.24972 -0.610131
-2.02587 2.23987 -0.454908
-4.67537 0.525081 -0.713808
-4.69724 0.543842 -0.661975
3.06826 1.68264 1.03207
-0.780994 2.42699 0.455205
2.75123 1.74461 1.1463
-4.83368 -0.239606 -0.592853
2.91228 1.59709 1.25656
-1.43274 2.3434 0.49527
-1.23641 2.34861 0.593152
-4.79434 -0.430581 -0.564068
-4.84366 -0.357968 -0.50656
-0.553218 2.36366 0.76589
-1.27781 2.31264 0.702492
2.91551 -0.621303 -1.93363
-2.22805 -2.10305 -0.765591
3.17376 -0.558973 -1.84915
-1.4963 -2.27619 -0.713609
-1.56856 -2.29413 -0.609832
-1.77231 -2.28218 -0.506361
-4.82039 0.359523 0.558313
-4.77732 0.431232 0.598612
-1.00849 -2.40605 -0.45461
-0.88353 -2.4274 -0.403193
-4.69724 -0.543842 0.661975
-4.67537 -0.525081 0.713808
-2.73448 -2.04672 0.437719
4.47138 -0.383668 -1.05095
-2.60696 -2.04758 0.598612
-0.849849 -2.4212 0.455205
0.402059 -2.44986 0.4558
0.189753 0.0584785 2.49751
-1.03137 -2.36887 0.61033
1.34097 -2.36472 0.456692
-1.23946 0.813081 2.28141
-3.01615 4.26825e-16 1.99392
-0.156073 0.330141 2.47688
-0.0862639 0.142622 2.49556
-0.121889 0.0933115 2.49751
-1.29465 -0.0467776 2.41429
-1.05382 0.0764509 2.44265
-1.64393 -0.517704 2.30355
-1.46869 -0.216497 2.37989
-0.409039 0.0929149 2.48989
-0.909815 -1.08737e-16 2.45826
-0.662759 -0.0725965 2.47688
0.163715 -0.486802 2.45078
0.641092 -0.472855 2.43386
0.294807 -0.217443 2.48616
0.2159 -0.102704 2.49556
0.125074 -0.0922516 2.49751
-0.165853 -0.00900341 -2.49861
-0.20294 -0.0460987 -2.49751
-0.0898034 -0.0326031 -2.49938
0.788639 2.40197 -0.570143
-1.14405 2.38313 -0.493413
1.98606 2.04809 1.03404
1.64564 2.06301 1.14759
1.88487 1.94374 1.25845
-1.87293 -2.27458 0.44646
-1.80864 -2.27039 0.526825
0.0519868 0.0490252 2.49938
-0.33373 -0.0181167 2.49436
-0.409039 -0.0929149 2.48989
-0.180369 -0.0654829 2.49751
-0.0528481 -0.0487944 2.49938
-0.0249253 -0.0730372 2.4989
0.110641 -0.198085 2.49153
0.754784 2.24432 1.03469
0.716299 2.12989 1.25909
-0.0958323 0.0279851 2.49938
-0.217737 0.0238503 2.49751
-0.166583 -0.00451159 2.49861
0.0497752 -0.0272967 2.49973
3 0 1 2
3 3 4 1
3 5 6 7
3 5 8 6
3 9 5 7
3 9 7 10
3 11 8 5
3 11 12 13
3 11 13 8
3 14 10 15
3 14 9 10
3 16 11 5
3 17 18 19
3 17 19 20
3 17 20 21
3 22 15 23
3 22 14 15
3 24 17 21
3 25 16 5
3 25 5 9
3 26 23 27
3 26 22 23
3 28 25 9
3 28 9 14
3 29 26 27
3 29 27 18
3 30 11 16
3 30 31 11
3 32 18 17
3 32 29 18
3 33 32 17
3 33 17 24
3 34 30 16
3 34 16 25
3 35 29 32
3 35 32 33
3 35 36 29
3 37 35 33
3 38 39 40
3 41 42 43
3 41 43 44
3 45 2 1
3 46 41 44
3 46 44 47
3 48 49 39
3 48 39 38
3 50 47 51
3 50 46 47
3 52 38 53
3 52 48 38
3 54 55 56
3 57 58 59
3 60 50 51
3 60 45 1
3 60 51 45
3 61 52 53
3 61 53 62
3 63 54 56
3 64 57 59
3 65 61 62
3 65 62 66
3 67 63 56
3 67 56 68
3 69 64 59
3 69 59 54
3 70 71 72
3 70 72 73
3 74 4 75
3 76 65 66
3 76 66 77
3 78 68 79
3 78 67 68
3 80 73 81
3 80 70 73
3 82 77 71
3 82 76 77
3 83 79 84
3 83 78 79
3 85 74 75
3 85 84 74
3 85 83 84
3 86 87 88
3 86 89 87
3 90 88 91
3 90 86 88
3 92 91 93
3 92 90 91
3 94 93 95
3 94 92 93
3 96 97 98
3 96 98 99
3 96 99 100
3 101 95 102
3 101 94 95
3 103 96 100
3 104 40 39
3 105 106 104
3 107 39 49
3 107 104 39
3 107 105 104
3 108 0 2
3 108 2 109
3 110 111 112
3 113 111 114
3 113 0 108
3 113 112 111
3 113 109 115
3 113 115 112
3 113 108 109
3 113 114 0
3 116 117 111
3 116 111 110
3 118 117 116
3 119 117 118
3 119 120 117
3 121 3 1
3 121 1 0
3 121 0 114
3 121 122 3
3 123 120 119
3 124 125 120
3 124 120 123
3 126 125 124
3 127 121 114
3 127 114 111
3 127 128 122
3 127 122 121
3 129 4 3
3 129 130 131
3 129 131 4
3 129 3 122
3 132 133 134
3 132 117 120
3 135 129 122
3 135 136 130
3 135 122 128
3 135 130 129
3 137 133 132
3 137 132 120
3 137 6 133
3 137 120 125
3 138 139 140
3 138 131 130
3 141 137 125
3 141 7 6
3 141 125 142
3 141 6 137
3 143 133 6
3 143 13 144
3 143 6 8
3 143 134 133
3 143 8 13
3 145 141 142
3 145 142 146
3 145 7 141
3 145 146 147
3 145 10 7
3 148 136 144
3 148 149 150
3 151 140 139
3 151 152 153
3 154 152 151
3 154 139 150
3 154 151 139
3 154 155 152
3 156 153 152
3 156 157 153
3 158 145 147
3 158 10 145
3 158 147 159
3 158 15 10
3 158 23 15
3 160 161 157
3 160 157 156
3 162 161 160
3 163 155 154
3 163 150 149
3 163 154 150
3 163 164 155
3 165 162 160
3 166 156 152
3 166 160 156
3 166 165 160
3 167 165 166
3 168 166 152
3 168 152 155
3 169 167 166
3 169 166 168
3 170 162 165
3 170 165 167
3 171 170 167
3 171 167 169
3 172 168 155
3 172 169 168
3 173 171 169
3 173 169 172
3 174 24 21
3 174 175 176
3 174 177 178
3 174 178 24
3 174 21 175
3 179 26 29
3 179 22 26
3 179 29 36
3 179 180 181
3 179 36 180
3 182 183 184
3 182 43 183
3 185 43 182
3 186 178 177
3 186 24 178
3 186 187 33
3 186 33 24
3 186 188 187
3 189 44 43
3 189 43 185
3 190 28 181
3 190 191 192
3 193 194 195
3 193 196 197
3 193 197 198
3 193 198 199
3 193 195 196
3 200 44 189
3 201 186 177
3 201 188 186
3 201 202 188
3 201 177 196
3 203 204 205
3 203 206 204
3 207 44 200
3 207 47 44
3 208 209 210
3 208 210 211
3 208 211 206
3 212 213 191
3 212 190 181
3 212 191 190
3 214 215 216
3 214 216 209
3 214 209 208
3 217 205 218
3 217 203 205
3 219 194 193
3 219 193 199
3 219 42 220
3 219 199 183
3 219 43 42
3 219 220 194
3 219 183 43
3 221 47 207
3 222 215 214
3 222 206 203
3 222 208 206
3 222 214 208
3 222 203 217
3 223 201 196
3 223 224 202
3 223 196 195
3 223 202 201
3 225 33 187
3 225 226 227
3 225 37 33
3 225 187 188
3 225 227 37
3 228 47 221
3 229 40 209
3 229 209 216
3 230 231 215
3 230 215 222
3 230 222 217
3 232 233 234
3 232 235 233
3 236 217 218
3 236 230 217
3 236 231 230
3 237 195 194
3 237 223 195
3 237 224 223
3 237 238 224
3 239 232 234
3 240 235 232
3 241 239 234
3 241 234 242
3 243 55 238
3 243 237 194
3 243 194 220
3 243 238 237
3 244 241 242
3 245 232 239
3 245 239 241
3 245 240 232
3 246 247 248
3 249 242 250
3 249 244 242
3 251 252 253
3 251 51 47
3 251 47 228
3 251 45 51
3 251 228 252
3 254 249 250
3 255 59 58
3 255 55 54
3 255 238 55
3 255 256 202
3 255 58 256
3 255 202 224
3 255 54 59
3 255 224 238
3 257 253 2
3 257 251 253
3 257 45 251
3 257 2 45
3 258 244 249
3 258 245 241
3 258 241 244
3 259 254 250
3 259 250 260
3 261 42 41
3 261 68 56
3 262 259 260
3 263 254 259
3 263 249 254
3 263 258 249
3 264 48 52
3 264 49 48
3 265 266 267
3 265 268 266
3 269 262 270
3 269 263 259
3 269 259 262
3 271 265 267
3 272 46 50
3 272 84 79
3 273 267 274
3 273 271 267
3 275 276 49
3 275 49 264
3 277 273 274
3 278 270 268
3 278 269 270
3 278 268 265
3 279 274 280
3 279 277 274
3 281 275 264
3 282 279 280
3 283 52 61
3 283 281 264
3 283 264 52
3 284 282 280
3 284 280 285
3 286 281 283
3 287 271 273
3 287 278 265
3 287 265 271
3 288 284 285
3 289 288 285
3 289 285 290
3 291 277 279
3 291 287 273
3 291 273 277
3 292 275 281
3 292 276 275
3 293 289 290
3 294 282 284
3 294 279 282
3 294 291 279
3 295 290 296
3 295 293 290
3 297 286 283
3 298 281 286
3 298 292 281
3 299 284 288
3 299 288 289
3 299 294 284
3 300 295 296
3 301 286 297
3 301 298 286
3 302 283 61
3 302 297 283
3 302 61 65
3 303 289 293
3 303 293 295
3 303 299 289
3 304 305 306
3 304 67 78
3 307 296 308
3 307 300 296
3 309 301 297
3 310 311 312
3 310 313 314
3 315 302 65
3 316 317 82
3 316 318 317
3 316 71 70
3 316 80 312
3 316 312 319
3 316 70 80
3 316 82 71
3 316 319 318
3 320 307 308
3 321 302 315
3 321 297 302
3 321 309 297
3 322 295 300
3 322 300 307
3 322 303 295
3 323 308 324
3 323 320 308
3 325 310 314
3 325 314 326
3 325 311 310
3 327 292 298
3 327 298 301
3 328 323 324
3 329 322 307
3 329 307 320
3 329 320 323
3 330 324 331
3 330 328 324
3 332 321 315
3 333 309 321
3 333 327 301
3 333 301 309
3 334 330 331
3 335 333 321
3 336 332 315
3 337 331 338
3 337 334 331
3 339 335 321
3 339 321 332
3 340 341 305
3 340 305 342
3 343 328 330
3 343 323 328
3 343 329 323
3 344 311 345
3 344 89 346
3 344 345 87
3 344 87 89
3 344 346 347
3 348 337 338
3 349 339 332
3 350 340 342
3 351 343 330
3 351 334 337
3 351 330 334
3 352 353 157
3 352 342 353
3 352 350 342
3 354 340 350
3 354 341 340
3 355 349 332
3 355 332 336
3 356 357 358
3 359 157 161
3 359 352 157
3 359 350 352
3 360 341 354
3 361 355 336
3 362 354 350
3 363 336 364
3 363 361 336
3 365 360 354
3 365 354 362
3 366 363 364
3 367 362 350
3 367 350 359
3 368 102 95
3 368 358 369
3 368 356 358
3 368 95 356
3 370 337 348
3 370 351 337
3 371 367 359
3 371 359 161
3 372 362 367
3 372 365 362
3 372 367 371
3 373 96 103
3 373 103 374
3 373 375 101
3 373 376 375
3 373 374 376
3 373 101 102
3 373 102 97
3 373 97 96
3 377 378 379
3 377 379 380
3 381 382 383
3 381 383 378
3 381 378 377
3 384 380 385
3 384 377 380
3 386 382 381
3 386 381 377
3 386 377 384
3 387 384 385
3 387 386 384
3 388 389 383
3 388 390 391
3 392 210 209
3 392 386 387
3 392 393 210
3 392 387 393
3 394 395 382
3 394 382 386
3 394 392 209
3 394 209 395
3 394 386 392
3 396 397 398
3 396 399 391
3 400 391 390
3 400 396 391
3 400 401 397
3 400 397 396
3 402 209 40
3 402 395 209
3 403 404 405
3 406 397 401
3 406 405 397
3 407 408 404
3 409 406 401
3 409 401 105
3 410 407 404
3 411 404 403
3 411 410 404
3 412 406 409
3 413 409 105
3 413 107 49
3 413 105 107
3 414 411 403
3 415 403 405
3 415 405 406
3 415 406 412
3 416 412 409
3 417 403 415
3 417 414 403
3 418 415 412
3 419 416 409
3 419 409 413
3 420 417 415
3 421 412 416
3 421 418 412
3 422 413 49
3 422 419 413
3 422 49 276
3 423 415 418
3 423 420 415
3 423 418 421
3 424 416 419
3 424 421 416
3 425 424 419
3 425 419 422
3 425 422 276
3 426 423 421
3 426 421 424
3 426 424 425
3 427 2 428
3 427 109 2
3 429 109 427
3 430 109 429
3 431 115 109
3 431 109 430
3 432 115 431
3 433 112 115
3 433 115 432
3 434 112 433
3 435 110 112
3 435 112 434
3 436 110 435
3 437 110 436
3 438 117 132
3 438 111 117
3 439 127 111
3 439 132 134
3 439 111 438
3 439 438 132
3 440 128 127
3 440 134 128
3 440 127 439
3 440 439 134
3 441 126 442
3 441 142 125
3 441 442 443
3 441 125 126
3 444 142 441
3 444 146 142
3 444 441 443
3 445 75 4
3 445 140 75
3 445 138 140
3 445 131 138
3 445 4 131
3 446 146 444
3 446 444 443
3 447 144 136
3 447 136 135
3 447 135 128
3 447 143 144
3 447 134 143
3 447 128 134
3 448 130 136
3 448 138 130
3 449 146 446
3 449 147 146
3 449 446 443
3 450 147 449
3 450 449 443
3 451 147 450
3 451 159 147
3 452 448 136
3 452 136 148
3 453 138 448
3 453 139 138
3 453 448 452
3 453 452 148
3 454 139 453
3 454 148 150
3 454 453 148
3 454 150 139
3 455 157 75
3 455 75 140
3 455 140 151
3 455 151 153
3 455 153 157
3 456 144 13
3 456 148 144
3 456 13 12
3 457 149 148
3 457 456 12
3 457 148 456
3 457 12 149
3 458 19 18
3 458 158 159
3 458 23 158
3 458 159 459
3 458 459 19
3 458 27 23
3 458 18 27
3 460 163 149
3 460 149 12
3 461 163 460
3 462 463 161
3 462 162 170
3 462 161 162
3 464 465 164
3 464 164 163
3 464 163 461
3 466 467 463
3 466 463 462
3 468 467 466
3 468 462 170
3 468 466 462
3 469 164 465
3 469 155 164
3 470 172 155
3 470 155 469
3 471 197 176
3 472 197 471
3 473 198 197
3 473 197 472
3 474 171 173
3 474 170 171
3 475 468 170
3 475 170 474
3 476 474 173
3 477 28 14
3 477 14 22
3 477 22 179
3 478 198 473
3 479 475 474
3 480 173 172
3 480 172 470
3 480 476 173
3 481 480 470
3 482 474 476
3 482 479 474
3 483 484 467
3 485 483 467
3 486 198 478
3 486 199 198
3 487 480 481
3 488 480 487
3 489 204 485
3 490 184 183
3 490 183 199
3 490 199 486
3 490 491 184
3 492 197 196
3 492 174 176
3 492 176 197
3 492 196 177
3 492 177 174
3 493 477 179
3 493 181 28
3 493 28 477
3 493 179 181
3 494 484 483
3 494 210 484
3 494 211 210
3 494 204 206
3 494 206 211
3 494 485 204
3 494 483 485
3 495 480 488
3 495 496 482
3 495 482 476
3 495 476 480
3 497 190 192
3 497 34 25
3 497 25 28
3 497 28 190
3 497 192 34
3 498 205 204
3 498 218 205
3 498 489 499
3 498 204 489
3 500 498 499
3 501 218 498
3 501 498 500
3 502 503 233
3 502 235 504
3 502 233 235
3 505 496 495
3 505 495 503
3 505 503 502
3 505 502 504
3 506 221 507
3 508 228 221
3 508 221 506
3 509 228 508
3 510 212 181
3 510 181 180
3 510 180 36
3 511 228 509
3 511 252 228
3 512 501 500
3 512 500 496
3 513 235 240
3 513 505 504
3 513 504 235
3 514 252 511
3 515 505 513
3 515 513 240
3 515 496 505
3 515 512 496
3 516 252 514
3 516 253 252
3 517 253 516
3 518 188 202
3 518 202 256
3 518 225 188
3 519 253 517
3 520 218 501
3 520 236 218
3 520 501 512
3 520 512 521
3 522 2 253
3 522 253 519
3 522 428 2
3 523 216 215
3 523 229 216
3 524 520 521
3 525 37 227
3 526 225 518
3 526 226 225
3 526 518 256
3 526 256 226
3 527 191 213
3 527 528 191
3 529 229 523
3 530 38 40
3 530 40 229
3 530 53 38
3 530 229 529
3 531 528 527
3 532 231 236
3 533 534 231
3 533 231 532
3 533 535 534
3 536 226 256
3 537 243 220
3 537 261 56
3 537 220 42
3 537 55 243
3 537 42 261
3 537 56 55
3 538 270 262
3 538 260 531
3 538 262 260
3 538 266 268
3 538 268 270
3 539 246 536
3 539 536 256
3 540 541 247
3 540 246 539
3 540 247 246
3 542 46 272
3 542 68 261
3 542 261 41
3 542 41 46
3 543 79 68
3 543 272 79
3 543 542 272
3 543 68 542
3 544 296 290
3 544 545 546
3 544 290 547
3 544 547 545
3 544 546 247
3 548 263 269
3 549 272 50
3 549 50 60
3 550 63 67
3 550 67 304
3 551 313 310
3 551 310 312
3 551 81 313
3 551 312 80
3 551 80 81
3 552 550 304
3 553 276 292
3 553 554 276
3 553 292 327
3 555 552 304
3 555 304 306
3 555 306 556
3 557 304 78
3 557 78 83
3 558 336 315
3 558 65 76
3 558 315 65
3 558 76 82
3 559 554 553
3 559 553 327
3 560 304 557
3 561 306 305
3 561 556 306
3 562 304 560
3 562 342 305
3 562 305 304
3 563 561 305
3 563 305 341
3 564 358 357
3 565 311 344
3 565 312 311
3 566 311 325
3 566 345 311
3 566 87 345
3 567 333 335
3 567 327 333
3 568 554 559
3 569 317 318
3 569 366 364
3 570 341 360
3 570 563 341
3 570 571 563
3 570 572 571
3 573 559 327
3 573 568 559
3 574 572 570
3 575 347 319
3 575 565 344
3 575 344 347
3 575 312 565
3 575 319 312
3 576 573 327
3 577 576 327
3 578 577 327
3 579 348 338
3 579 580 348
3 579 338 581
3 582 574 570
3 583 366 569
3 583 569 318
3 583 318 319
3 584 93 91
3 584 356 95
3 584 95 93
3 585 366 583
3 585 583 319
3 586 319 347
3 586 585 319
3 587 579 581
3 587 582 588
3 587 581 582
3 587 580 579
3 589 570 360
3 589 582 570
3 590 585 586
3 591 580 587
3 591 370 348
3 591 348 580
3 592 586 347
3 593 590 586
3 594 588 582
3 594 582 589
3 595 98 97
3 595 368 369
3 595 369 98
3 595 102 368
3 595 97 102
3 596 589 360
3 596 365 372
3 596 594 589
3 596 360 365
3 597 591 587
3 597 370 591
3 597 587 588
3 598 586 592
3 598 593 586
3 599 592 347
3 599 347 346
3 599 598 592
3 600 594 596
3 601 597 588
3 602 372 371
3 602 161 463
3 602 371 161
3 603 596 372
3 603 600 596
3 604 372 602
3 604 603 372
3 605 602 463
3 605 463 467
3 605 604 602
3 605 467 604
3 606 601 588
3 607 379 378
3 607 608 601
3 607 609 608
3 610 379 607
3 610 601 606
3 610 607 601
3 611 612 385
3 611 613 612
3 611 380 379
3 611 385 380
3 611 379 610
3 611 606 613
3 611 610 606
3 614 92 94
3 615 378 383
3 616 614 94
3 617 389 618
3 617 615 383
3 617 383 389
3 619 385 612
3 620 94 101
3 620 616 94
3 621 614 616
3 621 616 620
3 622 467 484
3 622 619 467
3 623 618 389
3 623 389 388
3 624 621 620
3 625 624 620
3 626 623 388
3 627 622 484
3 627 484 210
3 627 619 622
3 627 387 385
3 627 385 619
3 627 210 393
3 627 393 387
3 628 629 630
3 631 620 101
3 631 625 620
3 632 628 630
3 633 626 388
3 633 388 391
3 633 391 399
3 634 374 103
3 634 396 398
3 634 398 374
3 634 399 396
3 634 103 399
3 635 631 101
3 635 101 375
3 636 383 382
3 636 388 383
3 637 635 375
3 637 375 376
3 637 638 635
3 637 408 638
3 639 636 382
3 639 388 636
3 640 106 390
3 640 390 388
3 640 639 106
3 640 388 639
3 641 382 395
3 641 395 402
3 642 639 382
3 642 641 402
3 642 106 639
3 642 382 641
3 643 390 106
3 643 400 390
3 644 40 104
3 644 402 40
3 644 104 106
3 644 642 402
3 644 106 642
3 645 374 398
3 645 398 397
3 645 405 404
3 645 397 405
3 646 643 106
3 646 106 105
3 646 105 401
3 646 401 400
3 646 400 643
3 647 420 423
3 647 423 426
3 648 276 554
3 648 425 276
3 648 426 425
3 649 650 426
3 651 649 426
3 652 648 554
3 652 426 648
3 653 651 426
3 653 426 652
3 654 652 554
3 654 653 652
3 655 430 429
3 655 429 427
3 655 427 428
3 656 430 655
3 657 430 656
3 657 431 430
3 657 432 431
3 658 116 110
3 658 118 116
3 658 110 437
3 658 437 659
3 660 118 658
3 660 658 659
3 661 118 660
3 661 119 118
3 661 660 659
3 662 119 661
3 662 123 119
3 662 661 659
3 663 442 126
3 663 662 659
3 663 123 662
3 663 126 124
3 663 124 123
3 664 663 659
3 664 442 663
3 664 443 442
3 665 666 667
3 665 667 668
3 669 159 451
3 669 665 668
3 670 669 668
3 670 459 159
3 670 668 20
3 670 19 459
3 670 159 669
3 670 20 19
3 671 668 667
3 672 668 671
3 672 671 471
3 672 471 176
3 673 176 175
3 673 668 672
3 673 20 668
3 673 672 176
3 673 21 20
3 673 175 21
3 674 11 31
3 674 460 12
3 674 461 460
3 674 12 11
3 675 478 473
3 675 471 671
3 675 472 471
3 675 473 472
3 676 491 490
3 676 486 478
3 676 490 486
3 676 677 678
3 676 478 675
3 676 675 677
3 679 465 464
3 679 674 31
3 679 31 465
3 679 464 461
3 679 461 674
3 680 475 681
3 680 467 468
3 680 468 475
3 682 491 676
3 682 184 491
3 682 182 184
3 682 676 678
3 683 467 680
3 683 680 681
3 684 467 683
3 684 683 681
3 684 485 467
3 684 489 485
3 684 681 489
3 685 481 470
3 685 469 465
3 685 465 31
3 685 470 469
3 686 482 496
3 686 681 475
3 686 475 479
3 686 479 482
3 687 681 686
3 687 686 496
3 688 681 687
3 688 687 496
3 688 489 681
3 688 499 489
3 688 500 499
3 688 496 500
3 689 488 487
3 690 182 682
3 690 189 185
3 690 185 182
3 691 488 689
3 691 495 488
3 691 503 495
3 691 233 503
3 692 189 690
3 693 200 189
3 693 189 692
3 694 200 693
3 695 207 200
3 695 200 694
3 695 221 207
3 695 507 221
3 696 514 511
3 696 516 514
3 696 517 516
3 697 696 428
3 697 517 696
3 698 191 528
3 698 34 192
3 698 192 191
3 699 519 517
3 699 522 519
3 699 428 522
3 699 517 697
3 699 697 428
3 700 698 528
3 700 34 698
3 701 213 212
3 701 702 213
3 701 212 510
3 701 510 36
3 701 36 35
3 701 703 702
3 704 515 240
3 704 512 515
3 704 524 521
3 704 521 512
3 705 700 528
3 705 250 242
3 705 260 250
3 705 528 531
3 705 531 260
3 706 236 520
3 706 707 532
3 706 524 707
3 706 532 236
3 706 520 524
3 708 709 703
3 708 246 248
3 708 37 525
3 708 525 246
3 708 701 35
3 708 248 709
3 708 35 37
3 708 703 701
3 710 213 702
3 710 702 703
3 711 213 710
3 711 527 213
3 712 215 231
3 712 529 523
3 712 523 215
3 713 704 240
3 713 240 245
3 714 525 227
3 714 227 226
3 714 246 525
3 714 536 246
3 714 226 536
3 715 707 524
3 715 704 713
3 715 524 704
3 716 529 712
3 717 531 527
3 718 711 710
3 718 710 703
3 719 530 529
3 719 53 530
3 719 62 53
3 719 529 716
3 720 703 709
3 720 709 248
3 720 718 703
3 721 707 715
3 722 267 266
3 722 538 531
3 722 266 538
3 722 531 717
3 723 718 720
3 724 707 721
3 724 72 535
3 724 532 707
3 724 533 532
3 724 535 533
3 725 723 720
3 725 720 248
3 725 248 247
3 725 247 546
3 726 722 717
3 726 274 267
3 726 717 727
3 726 267 722
3 728 718 723
3 729 726 727
3 729 727 730
3 729 274 726
3 731 723 725
3 731 725 546
3 731 728 723
3 731 546 545
3 732 57 541
3 732 256 58
3 732 541 540
3 732 539 256
3 732 58 57
3 732 540 539
3 733 258 263
3 733 263 548
3 734 280 274
3 734 274 729
3 734 285 280
3 735 285 734
3 735 290 285
3 735 547 290
3 736 313 81
3 736 733 548
3 737 247 541
3 737 541 57
3 737 544 247
3 738 548 269
3 739 738 269
3 739 278 287
3 739 287 740
3 739 269 278
3 741 544 737
3 741 308 296
3 741 296 544
3 742 548 738
3 742 738 739
3 743 550 552
3 743 63 550
3 743 69 54
3 743 54 63
3 744 548 742
3 745 548 744
3 746 739 740
3 746 740 747
3 746 742 739
3 746 744 742
3 748 736 548
3 748 313 736
3 748 548 745
3 749 746 747
3 749 747 750
3 749 745 744
3 749 750 748
3 749 744 746
3 749 748 745
3 751 4 74
3 751 1 4
3 751 60 1
3 751 549 60
3 752 291 294
3 752 287 291
3 752 740 287
3 753 743 552
3 753 556 69
3 753 555 556
3 753 69 743
3 753 552 555
3 754 750 314
3 754 314 313
3 754 748 750
3 754 313 748
3 755 750 747
3 756 752 294
3 756 294 299
3 757 69 556
3 757 561 563
3 757 556 561
3 757 563 571
3 758 314 750
3 758 326 314
3 758 750 755
3 759 755 760
3 759 758 755
3 761 299 303
3 761 322 762
3 761 303 322
3 763 757 571
3 763 69 757
3 764 756 299
3 764 765 756
3 764 299 761
3 766 326 758
3 766 758 759
3 766 767 768
3 766 768 326
3 769 759 760
3 769 767 766
3 769 766 759
3 769 760 765
3 770 83 85
3 770 557 83
3 771 764 761
3 771 761 762
3 771 762 564
3 772 770 85
3 772 560 557
3 772 557 770
3 773 763 571
3 773 571 572
3 774 82 317
3 774 364 336
3 774 317 569
3 774 336 558
3 774 569 364
3 774 558 82
3 775 762 322
3 775 322 329
3 776 564 357
3 777 778 767
3 777 767 769
3 777 769 776
3 777 776 357
3 777 357 778
3 779 772 85
3 779 560 772
3 780 325 326
3 780 88 87
3 780 87 566
3 780 768 767
3 780 326 768
3 780 566 325
3 781 562 560
3 781 342 562
3 781 560 779
3 781 353 342
3 782 773 572
3 782 572 574
3 783 574 582
3 783 582 581
3 783 338 773
3 783 773 782
3 783 782 574
3 783 581 338
3 784 762 775
3 785 564 762
3 785 762 784
3 786 767 778
3 786 584 91
3 786 356 584
3 786 780 767
3 786 88 780
3 786 357 356
3 786 91 88
3 786 778 357
3 787 788 554
3 787 554 568
3 789 788 787
3 789 787 568
3 790 564 785
3 790 785 784
3 790 784 369
3 791 789 568
3 792 369 358
3 792 358 564
3 792 790 369
3 792 564 790
3 793 791 568
3 794 327 567
3 794 795 578
3 794 578 327
3 796 568 573
3 796 793 568
3 797 794 567
3 797 567 335
3 797 795 794
3 798 795 797
3 798 335 339
3 798 339 349
3 798 797 335
3 799 351 370
3 800 798 349
3 800 349 355
3 800 355 361
3 801 361 363
3 801 800 361
3 802 370 597
3 802 597 601
3 802 601 608
3 802 608 609
3 803 801 363
3 804 588 594
3 804 594 600
3 804 600 603
3 804 603 805
3 806 803 363
3 806 363 366
3 807 798 800
3 807 795 798
3 808 804 805
3 808 588 804
3 809 598 599
3 810 346 89
3 810 809 599
3 810 599 346
3 811 366 585
3 812 800 801
3 812 801 803
3 812 807 800
3 813 811 585
3 813 629 811
3 813 585 590
3 813 593 598
3 813 590 593
3 814 629 813
3 814 813 598
3 815 805 612
3 815 612 613
3 815 808 805
3 815 588 808
3 815 606 588
3 815 613 606
3 816 630 629
3 816 598 809
3 816 810 817
3 816 809 810
3 816 817 630
3 816 629 814
3 816 814 598
3 818 618 100
3 818 819 615
3 818 100 820
3 818 615 617
3 818 617 618
3 818 820 819
3 821 604 467
3 821 805 603
3 821 603 604
3 822 805 821
3 822 821 467
3 823 378 615
3 823 615 819
3 823 607 378
3 823 819 609
3 823 609 607
3 824 92 614
3 824 90 92
3 825 811 629
3 825 826 827
3 828 612 805
3 828 467 619
3 828 805 822
3 828 619 612
3 828 822 467
3 829 614 621
3 829 824 614
3 829 817 824
3 830 100 618
3 830 103 100
3 830 618 623
3 830 623 626
3 831 825 629
3 831 826 825
3 832 833 632
3 832 630 817
3 832 632 630
3 832 817 829
3 834 103 830
3 834 626 633
3 834 633 399
3 834 399 103
3 834 830 626
3 835 629 628
3 835 831 629
3 835 826 831
3 836 632 833
3 836 628 632
3 837 829 621
3 837 631 635
3 837 832 829
3 837 621 624
3 837 624 625
3 837 625 631
3 837 635 638
3 837 833 832
3 838 833 837
3 838 837 638
3 839 376 374
3 839 404 408
3 839 645 404
3 839 637 376
3 839 374 645
3 839 408 637
3 840 833 838
3 841 408 407
3 841 840 838
3 841 838 638
3 841 638 408
3 842 843 840
3 844 840 841
3 844 842 840
3 845 841 407
3 845 844 841
3 846 842 844
3 847 411 414
3 847 414 417
3 848 847 417
3 849 417 420
3 849 848 417
3 850 844 845
3 850 846 844
3 851 420 647
3 851 849 420
3 852 647 426
3 852 650 853
3 852 426 650
3 852 851 647
3 854 653 654
3 855 854 654
3 855 788 854
3 856 855 654
3 856 788 855
3 857 856 654
3 857 788 856
3 858 654 554
3 858 554 788
3 858 857 654
3 858 788 857
3 859 434 433
3 859 657 656
3 859 656 655
3 859 433 432
3 859 655 428
3 859 432 657
3 859 436 435
3 859 435 434
3 859 437 436
3 859 659 437
3 860 664 659
3 860 443 664
3 860 659 859
3 861 859 428
3 861 443 860
3 861 860 859
3 861 862 443
3 863 666 862
3 863 862 861
3 864 862 666
3 864 669 451
3 864 451 450
3 864 666 665
3 864 665 669
3 864 450 443
3 864 443 862
3 865 667 666
3 865 666 863
3 866 671 667
3 866 667 865
3 866 865 867
3 868 677 675
3 868 671 866
3 868 675 671
3 868 866 867
3 869 31 30
3 869 685 31
3 870 682 678
3 870 692 690
3 870 693 692
3 870 694 693
3 870 695 694
3 870 507 695
3 870 690 682
3 871 869 30
3 871 685 869
3 872 428 696
3 872 507 870
3 872 870 428
3 872 506 507
3 872 696 511
3 872 508 506
3 872 509 508
3 872 511 509
3 873 234 233
3 874 34 700
3 874 30 34
3 874 871 30
3 875 874 700
3 875 700 705
3 875 705 242
3 875 242 234
3 876 527 711
3 876 711 718
3 877 527 876
3 877 718 730
3 877 876 718
3 877 717 527
3 877 727 717
3 877 730 727
3 878 716 712
3 878 231 534
3 878 712 231
3 879 721 715
3 879 713 245
3 879 245 258
3 879 715 713
3 880 716 878
3 881 729 730
3 881 728 731
3 881 730 718
3 881 718 728
3 882 62 719
3 882 719 716
3 882 716 880
3 882 66 62
3 883 879 258
3 883 258 733
3 883 733 736
3 884 721 879
3 884 883 736
3 884 879 883
3 885 881 731
3 885 731 545
3 885 545 547
3 886 729 881
3 886 881 885
3 886 734 729
3 886 885 547
3 886 547 735
3 886 735 734
3 887 721 884
3 887 73 72
3 887 72 724
3 887 724 721
3 888 81 73
3 888 884 736
3 888 887 884
3 888 736 81
3 888 73 887
3 889 272 549
3 889 84 272
3 889 549 751
3 890 57 64
3 890 737 57
3 890 741 737
3 891 751 74
3 891 889 751
3 891 84 889
3 891 74 84
3 892 69 763
3 892 890 64
3 892 64 69
3 893 892 763
3 893 741 890
3 893 890 892
3 894 308 741
3 894 324 308
3 894 741 893
3 895 752 756
3 895 740 752
3 895 756 765
3 896 760 755
3 896 747 740
3 896 740 895
3 896 895 765
3 896 755 747
3 896 765 760
3 897 324 894
3 897 763 773
3 897 893 763
3 897 894 893
3 898 331 324
3 898 773 338
3 898 338 331
3 898 897 773
3 898 324 897
3 899 765 764
3 899 769 765
3 899 764 771
3 899 771 564
3 900 769 899
3 900 564 776
3 900 776 769
3 900 899 564
3 901 329 343
3 901 775 329
3 901 784 775
3 902 75 157
3 902 157 353
3 902 85 75
3 902 779 85
3 902 781 779
3 902 353 781
3 903 98 369
3 903 784 901
3 903 99 98
3 903 369 784
3 904 351 799
3 904 799 905
3 904 905 820
3 906 796 573
3 906 793 796
3 906 788 789
3 906 789 791
3 906 573 576
3 906 578 795
3 906 576 577
3 906 577 578
3 906 791 793
3 907 904 820
3 907 820 100
3 907 100 99
3 907 99 903
3 908 905 799
3 908 370 802
3 908 799 370
3 908 802 609
3 908 820 905
3 908 819 820
3 908 609 819
3 909 366 811
3 909 806 366
3 909 811 825
3 909 827 806
3 909 825 827
3 910 817 810
3 910 89 86
3 910 810 89
3 910 90 824
3 910 86 90
3 910 824 817
3 911 806 827
3 911 803 806
3 911 807 812
3 911 827 826
3 911 812 803
3 912 807 911
3 913 911 826
3 913 912 911
3 914 835 628
3 914 915 835
3 916 836 833
3 916 840 843
3 916 833 840
3 917 628 836
3 917 836 916
3 917 914 628
3 917 843 914
3 917 916 843
3 918 835 915
3 918 826 835
3 919 915 914
3 919 918 915
3 920 914 843
3 920 919 914
3 921 407 410
3 921 845 407
3 921 410 411
3 921 850 845
3 921 411 847
3 922 847 848
3 922 848 849
3 922 921 847
3 922 849 851
3 922 852 853
3 922 851 852
3 923 921 922
3 923 922 853
3 924 853 650
3 924 650 649
3 924 649 651
3 924 651 653
3 924 653 854
3 924 923 853
3 924 925 923
3 926 863 861
3 926 867 865
3 926 865 863
3 927 867 926
3 927 868 867
3 928 926 861
3 928 428 870
3 928 868 927
3 928 678 677
3 928 861 428
3 928 677 868
3 928 870 678
3 928 927 926
3 929 873 233
3 929 685 871
3 929 481 685
3 929 233 691
3 929 691 689
3 929 487 481
3 929 689 487
3 929 871 873
3 930 234 873
3 930 871 874
3 930 874 875
3 930 875 234
3 930 873 871
3 931 880 878
3 931 878 534
3 931 534 535
3 932 880 931
3 933 882 880
3 933 66 882
3 933 880 932
3 933 77 66
3 934 901 343
3 934 343 351
3 934 351 904
3 935 903 901
3 935 901 934
3 935 904 907
3 935 907 903
3 935 934 904
3 936 788 906
3 936 807 912
3 936 912 913
3 936 795 807
3 936 906 795
3 937 919 920
3 938 920 843
3 938 843 842
3 938 937 920
3 939 938 842
3 940 939 842
3 940 842 846
3 941 940 846
3 941 846 850
3 942 941 850
3 942 925 941
3 942 850 921
3 942 921 923
3 942 923 925
3 943 535 72
3 943 931 535
3 943 932 931
3 944 72 71
3 944 932 943
3 944 943 72
3 944 71 77
3 944 933 932
3 944 77 933
3 945 940 788
3 945 788 936
3 945 826 918
3 945 913 826
3 945 936 913
3 946 945 918
3 946 918 919
3 946 919 937
3 947 938 939
3 947 937 938
3 947 940 945
3 947 946 937
3 947 945 946
3 947 939 940
3 948 788 940
3 948 940 941
3 948 941 925
3 948 924 854
3 948 854 788
3 948 925 924
